<svg id="visual" viewBox="0 0 960 540" width="960" height="540" xmlns="http://www.w3.org/2000/svg" xmlns:xlink="http://www.w3.org/1999/xlink" version="1.1"><path d="M0 39L14.5 45.3C29 51.7 58 64.3 87.2 69.7C116.3 75 145.7 73 174.8 75.7C204 78.3 233 85.7 262 86.7C291 87.7 320 82.3 349 81.3C378 80.3 407 83.7 436.2 81.8C465.3 80 494.7 73 523.8 74C553 75 582 84 611 80.3C640 76.7 669 60.3 698 54C727 47.7 756 51.3 785.2 55C814.3 58.7 843.7 62.3 872.8 58.7C902 55 931 44 945.5 38.5L960 33L960 0L945.5 0C931 0 902 0 872.8 0C843.7 0 814.3 0 785.2 0C756 0 727 0 698 0C669 0 640 0 611 0C582 0 553 0 523.8 0C494.7 0 465.3 0 436.2 0C407 0 378 0 349 0C320 0 291 0 262 0C233 0 204 0 174.8 0C145.7 0 116.3 0 87.2 0C58 0 29 0 14.5 0L0 0Z" fill="#888888"></path><path d="M0 233L14.5 238.5C29 244 58 255 87.2 258.7C116.3 262.3 145.7 258.7 174.8 249.7C204 240.7 233 226.3 262 226.3C291 226.3 320 240.7 349 236.2C378 231.7 407 208.3 436.2 193C465.3 177.7 494.7 170.3 523.8 174.8C553 179.3 582 195.7 611 200.2C640 204.7 669 197.3 698 186.5C727 175.7 756 161.3 785.2 179.3C814.3 197.3 843.7 247.7 872.8 260.2C902 272.7 931 247.3 945.5 234.7L960 222L960 31L945.5 36.5C931 42 902 53 872.8 56.7C843.7 60.3 814.3 56.7 785.2 53C756 49.3 727 45.7 698 52C669 58.3 640 74.7 611 78.3C582 82 553 73 523.8 72C494.7 71 465.3 78 436.2 79.8C407 81.7 378 78.3 349 79.3C320 80.3 291 85.7 262 84.7C233 83.7 204 76.3 174.8 73.7C145.7 71 116.3 73 87.2 67.7C58 62.3 29 49.7 14.5 43.3L0 37Z" fill="#767676"></path><path d="M0 352L14.5 352C29 352 58 352 87.2 346.7C116.3 341.3 145.7 330.7 174.8 317.2C204 303.7 233 287.3 262 292.7C291 298 320 325 349 329.5C378 334 407 316 436.2 307C465.3 298 494.7 298 523.8 295.3C553 292.7 582 287.3 611 295.5C640 303.7 669 325.3 698 325.3C727 325.3 756 303.7 785.2 311.7C814.3 319.7 843.7 357.3 872.8 371.7C902 386 931 377 945.5 372.5L960 368L960 220L945.5 232.7C931 245.3 902 270.7 872.8 258.2C843.7 245.7 814.3 195.3 785.2 177.3C756 159.3 727 173.7 698 184.5C669 195.3 640 202.7 611 198.2C582 193.7 553 177.3 523.8 172.8C494.7 168.3 465.3 175.7 436.2 191C407 206.3 378 229.7 349 234.2C320 238.7 291 224.3 262 224.3C233 224.3 204 238.7 174.8 247.7C145.7 256.7 116.3 260.3 87.2 256.7C58 253 29 242 14.5 236.5L0 231Z" fill="#646464"></path><path d="M0 428L14.5 440.5C29 453 58 478 87.2 490.5C116.3 503 145.7 503 174.8 492.2C204 481.3 233 459.7 262 448.8C291 438 320 438 349 443.5C378 449 407 460 436.2 465.5C465.3 471 494.7 471 523.8 475.5C553 480 582 489 611 493.5C640 498 669 498 698 497C727 496 756 494 785.2 493C814.3 492 843.7 492 872.8 483C902 474 931 456 945.5 447L960 438L960 366L945.5 370.5C931 375 902 384 872.8 369.7C843.7 355.3 814.3 317.7 785.2 309.7C756 301.7 727 323.3 698 323.3C669 323.3 640 301.7 611 293.5C582 285.3 553 290.7 523.8 293.3C494.7 296 465.3 296 436.2 305C407 314 378 332 349 327.5C320 323 291 296 262 290.7C233 285.3 204 301.7 174.8 315.2C145.7 328.7 116.3 339.3 87.2 344.7C58 350 29 350 14.5 350L0 350Z" fill="#565656"></path><path d="M0 541L14.5 541C29 541 58 541 87.2 541C116.3 541 145.7 541 174.8 541C204 541 233 541 262 541C291 541 320 541 349 541C378 541 407 541 436.2 541C465.3 541 494.7 541 523.8 541C553 541 582 541 611 541C640 541 669 541 698 541C727 541 756 541 785.2 541C814.3 541 843.7 541 872.8 541C902 541 931 541 945.5 541L960 541L960 436L945.5 445C931 454 902 472 872.8 481C843.7 490 814.3 490 785.2 491C756 492 727 494 698 495C669 496 640 496 611 491.5C582 487 553 478 523.8 473.5C494.7 469 465.3 469 436.2 463.5C407 458 378 447 349 441.5C320 436 291 436 262 446.8C233 457.7 204 479.3 174.8 490.2C145.7 501 116.3 501 87.2 488.5C58 476 29 451 14.5 438.5L0 426Z" fill="#494949"></path></svg>